HIERARCHY
ROOT ui
{
	 OFFSET 0 0 0
	 CHANNELS 3 XPosition YPosition Z Position
	 EndSite
	 {
	 OFFSET 0 -1 0
	 }
}
ROOT li
{
	 OFFSET 0 0 0
	 CHANNELS 3 XPosition YPosition Z Position
	 EndSite
	 {
	 OFFSET 0 -1 0
	 }
}
ROOT ul
{
	 OFFSET 0 0 0
	 CHANNELS 3 XPosition YPosition Z Position
	 EndSite
	 {
	 OFFSET 0 -1 0
	 }
}
ROOT ll
{
	 OFFSET 0 0 0
	 CHANNELS 3 XPosition YPosition Z Position
	 EndSite
	 {
	 OFFSET 0 -1 0
	 }
}
ROOT tt
{
	 OFFSET 0 0 0
	 CHANNELS 3 XPosition YPosition Z Position
	 EndSite
	 {
	 OFFSET 0 -1 0
	 }
}
ROOT tb
{
	 OFFSET 0 0 0
	 CHANNELS 3 XPosition YPosition Z Position
	 EndSite
	 {
	 OFFSET 0 -1 0
	 }
}
ROOT td
{
	 OFFSET 0 0 0
	 CHANNELS 3 XPosition YPosition Z Position
	 EndSite
	 {
	 OFFSET 0 -1 0
	 }
}
ROOT v
{
	 OFFSET 0 0 0
	 CHANNELS 3 XPosition YPosition Z Position
	 EndSite
	 {
	 OFFSET 0 -1 0
	 }
}
ROOT bn
{
	 OFFSET 0 0 0
	 CHANNELS 3 XPosition YPosition Z Position
	 EndSite
	 {
	 OFFSET 0 -1 0
	 }
}
MOTION
Frames: 27
Frame Time: 0.002
-0.037733394622802736	-0.006721869945526123	0		0.43283868408203124	-2.329482666015625	0		-1.09043310546875	-0.12463460540771484	0		-0.6053478393554688	-2.704483642578125	0		1.6531031494140624	-0.5585115966796875	0		3.22084912109375	0.25743359375	0		4.190537109375	0.39698626708984375	0		5.96653759765625	0.3685532836914063	0		-0.14177664184570313	5.86397802734375	0		
0.0031635880470275877	0.005481857776641846	0		0.46961004638671877	-2.339255126953125	0		-1.0755933837890626	-0.1222810287475586	0		-0.6345578002929687	-2.710875244140625	0		1.6329378662109375	-0.5569537353515625	0		3.227677001953125	0.25783633422851565	0		4.19036474609375	0.3974299926757813	0		5.95736572265625	0.36905038452148436	0		-0.19695135498046876	5.8647373046875	0		
-0.03813229751586914	-0.005835035800933838	0		0.41542581176757815	-2.331496826171875	0		-1.0707974853515625	-0.11786492919921875	0		-0.6218180541992188	-2.7165048828125	0		1.65572802734375	-0.553639892578125	0		3.23036865234375	0.24426715087890624	0		4.20218896484375	0.40680889892578126	0		5.96613818359375	0.3694480895996094	0		-0.19718240356445313	5.86518310546875	0		
0.005667180061340332	0.010359933853149414	0		0.4621509704589844	-2.32831884765625	0		-1.0770606689453126	-0.11238105010986328	0		-0.6310513305664063	-2.706003662109375	0		1.6324189453125	-0.5560565185546875	0		3.24211669921875	0.2516486206054688	0		4.2018447265625	0.39826031494140623	0		5.965845703125	0.369900146484375	0		-0.19747706604003906	5.86563232421875	0		
-0.0527119140625	0.008147686004638673	0		0.43178860473632813	-2.327693115234375	0		-1.0843944091796875	-0.10688826751708984	0		-0.5574617309570312	-2.71397900390625	0		1.646009765625	-0.5636851806640625	0		3.239707763671875	0.2441123809814453	0		4.196435546875	0.3907413330078125	0		5.96953515625	0.3793287048339844	0		-0.14284024047851562	5.8657666015625	0		
0.010801526069641113	-7.69828975200653E-4	0		0.4942655029296875	-2.342605224609375	0		-1.084827880859375	-0.10643497467041016	0		-0.6229078369140625	-2.715150146484375	0		1.6455758056640626	-0.5632340087890625	0		3.217239990234375	0.23868959045410157	0		4.2009501953125	0.382161865234375	0		5.95605029296875	0.3708517761230469	0		-0.1982681427001953	5.86653759765625	0		
-0.047714088439941404	-0.002985373020172119	0		0.43980337524414065	-2.334844970703125	0		-1.0723853759765625	-0.11605914306640625	0		-0.581406982421875	-2.713943115234375	0		1.6560059814453125	-0.5748516235351563	0		3.241613525390625	0.21698826599121093	0		4.2004521484375	0.3826033935546875	0		5.97759765625	0.3791622619628906	0		-0.19676815795898436	5.86497509765625	0		
0.018741193771362304	-9.318860173225403E-4	0		0.4432694396972656	-2.329428466796875	0		-1.0588717041015625	-0.1036956787109375	0		-0.6009533081054688	-2.71039013671875	0		1.654448974609375	-0.5744100341796875	0		3.257134033203125	0.23032603454589845	0		4.211904296875	0.3839620361328125	0		5.97308984375	0.38760693359375	0		-0.19730413818359374	5.8654169921875	0		
-0.036855113983154296	-1.8363100290298462E-4	0		0.4426605834960938	-2.3290009765625	0		-1.0724112548828124	-0.09318553924560546	0		-0.5705066528320313	-2.70013720703125	0		1.663912353515625	-0.5630467529296875	0		3.244497802734375	0.22380911254882813	0		4.21726953125	0.3773370361328125	0		5.9674541015625	0.381035888671875	0		-0.19986044311523438	5.867859375	0		
-4.255630075931549E-4	0.00901636028289795	0		0.42904010009765625	-2.32551416015625	0		-1.0820802001953125	-0.10071129608154297	0		-0.6180711059570313	-2.6864462890625	0		1.6652342529296875	-0.5716551513671875	0		3.24983642578125	0.21716656494140624	0		4.239650390625	0.3775904541015625	0		5.97178271484375	0.3723804016113281	0		-0.21451141357421874	5.8563564453125	0		
0.012872041702270508	-0.003669495105743408	0		0.465334228515625	-2.33533740234375	0		-1.0827078857421875	-0.10030653381347657	0		-0.5767163696289063	-2.68528955078125	0		1.6585618896484375	-0.5782395629882813	0		3.259130126953125	0.20347538757324218	0		4.2269296875	0.3610201721191406	0		5.96125830078125	0.38978094482421877	0		-0.21608079528808594	5.85775927734375	0		
0.008244443893432617	-0.0062748661041259765	0		0.4367117004394531	-2.332807861328125	0		-1.0792958984375	-0.0959470977783203	0		-0.6343187866210938	-2.67858056640625	0		1.6699512939453125	-0.5769553833007812	0		3.258522216796875	0.20381265258789064	0		4.2153310546875	0.36241339111328125	0		5.97964599609375	0.3889793395996094	0		-0.20057162475585938	5.8680400390625	0		
0.010734794616699218	0.00505050802230835	0		0.4401396789550781	-2.3274931640625	0		-1.0578885498046875	-0.09871949768066406	0		-0.5978312377929688	-2.662446044921875	0		1.65139453125	-0.5725269165039063	0		3.26178759765625	0.1760946502685547	0		4.2537216796875	0.35548202514648436	0		5.9740302734375	0.381281494140625	0		-0.16604776000976562	5.87318115234375	0		
0.011168435096740722	-0.0026445279121398925	0		0.4395907897949219	-2.32718798828125	0		-1.0753681640625	-0.09129616546630859	0		-0.6382667846679687	-2.641894287109375	0		1.6718673095703125	-0.572359619140625	0		3.24738720703125	0.19644593811035158	0		4.225162109375	0.34790567016601565	0		5.96461474609375	0.3985695190429687	0		-0.1475172882080078	5.86938330078125	0		
0.010717695236206054	-0.002370099067687988	0		0.49306768798828127	-2.3342353515625	0		-1.075820068359375	-0.09100751495361328	0		-0.5947352905273438	-2.638869140625	0		1.650409423828125	-0.5719839477539063	0		3.2798095703125	0.174485107421875	0		4.27467626953125	0.3408348388671875	0		5.96812255859375	0.3907427673339844	0		-0.2028902587890625	5.86998193359375	0		
0.006330665111541748	-0.00511198902130127	0		0.4257266235351562	-2.323614013671875	0		-1.0931552734375	-0.08465859222412109	0		-0.6000521850585937	-2.62359716796875	0		1.668008544921875	-0.5758770751953125	0		3.244443115234375	0.17488107299804687	0		4.2582666015625	0.33310867309570313	0		5.95875830078125	0.3909498291015625	0		-0.20318055725097656	5.87021923828125	0		
0.006052327156066894	-0.004920135021209717	0		0.46235678100585936	-2.3336455078125	0		-1.0894112548828125	-0.08047516632080078	0		-0.6682830810546875	-2.6089970703125	0		1.64974609375	-0.571602294921875	0		3.266002197265625	0.14689924621582032	0		4.2459013671875	0.3173154602050781	0		5.96353271484375	0.39902993774414064	0		-0.2023836669921875	5.869408203125	0		
0.013914226531982422	0.002179660081863403	0		0.4422161560058594	-2.32138720703125	0		-1.0805445556640625	-0.0723659896850586	0		-0.6154229125976562	-2.5961533203125	0		1.6585469970703124	-0.5735311889648438	0		3.273895751953125	0.15895344543457032	0		4.245734375	0.3184061584472656	0		5.9853056640625	0.38996426391601563	0		-0.1674520263671875	5.8743515625	0		
0.013839837074279784	0.002280574083328247	0		0.4891263427734375	-2.318570068359375	0		-1.0806199951171875	-0.07224983978271485	0		-0.6454679565429687	-2.584866455078125	0		1.65954150390625	-0.5604592895507813	0		3.26362255859375	0.12506869506835938	0		4.2725771484375	0.30329156494140624	0		5.9722900390625	0.3990587463378906	0		-0.16942689514160156	5.877466796875	0		
0.009849440574645997	-0.0016420780420303344	0		0.4271168212890625	-2.320155517578125	0		-1.0975518798828126	-0.0660805435180664	0		-0.5774419555664062	-2.58020703125	0		1.673519287109375	-0.56851123046875	0		3.269615966796875	0.11804203796386718	0		4.2565283203125	0.28838427734375	0		5.97628125	0.3910066223144531	0		-0.18437759399414064	5.86661181640625	0		
0.005972392082214355	-0.004613339900970459	0		0.45520748901367186	-2.32332275390625	0		-1.097412109375	-0.06606047058105469	0		-0.6452521362304687	-2.565790283203125	0		1.64272998046875	-0.5553451538085937	0		3.270597900390625	0.09099691772460937	0		4.27858544921875	0.27320343017578125	0		5.96742724609375	0.3909833984375	0		-0.22018569946289063	5.86183349609375	0		
0.010235697746276855	-0.0016820019483566285	0		0.43639208984375	-2.32826025390625	0		-1.0921436767578125	-0.06212011337280274	0		-0.5990065307617187	-2.560100341796875	0		1.6528963623046875	-0.5674714965820312	0		3.2708447265625	0.09090776824951172	0		4.256748046875	0.25823455810546875	0		5.9727255859375	0.3988277282714844	0		-0.2037952880859375	5.8726962890625	0		
0.010581252098083496	-0.0017770589590072631	0		0.4407362976074219	-2.323385009765625	0		-1.16272607421875	-0.049777000427246094	0		-0.6645985107421875	-2.543793701171875	0		1.6632998046875	-0.5566484375	0		3.262137939453125	0.08182298278808593	0		4.262056640625	0.25105569458007815	0		5.9861240234375	0.4065752258300781	0		-0.17033000183105468	5.8794072265625	0		
0.015043399810791015	0.0020538060665130616	0		0.43420449829101565	-2.313494140625	0		-1.07327197265625	-0.04743922424316406	0		-0.6321338500976562	-2.53412158203125	0		1.6577669677734375	-0.5507791748046875	0		3.267529296875	0.07360602569580078	0		4.2784580078125	0.24376260375976563	0		5.97747216796875	0.3904068908691406	0		-0.16981564331054688	5.87926416015625	0		
0.011540494918823242	-0.0021170670986175536	0		0.4306670227050781	-2.318670166015625	0		-1.156744140625	-0.04611738967895508	0		-0.637566162109375	-2.521272705078125	0		1.653317138671875	-0.5449644775390625	0		3.269889404296875	0.04635947799682617	0		4.2798525390625	0.22151193237304687	0		5.9820458984375	0.3981142883300781	0		-0.13617477416992188	5.8868740234375	0		
0.01213082504272461	-0.002361166000366211	0		0.4571995239257812	-2.3240751953125	0		-1.063114013671875	-0.03990618896484375	0		-0.5970122680664063	-2.522749267578125	0		1.653901123046875	-0.5452279663085937	0		3.27048046875	0.04607693099975586	0		4.311404296875	0.21403384399414063	0		5.9785927734375	0.38982391357421875	0		-0.20458576965332032	5.8750458984375	0		
-0.042217994689941404	-0.0013229260444641113	0		0.4318475952148437	-2.319216552734375	0		-1.1374207763671875	-0.031735422134399414	0		-0.6563718872070312	-2.518674072265625	0		1.61656982421875	-0.5403109130859375	0		3.257950927734375	0.016825653076171874	0		4.301962890625	0.19875460815429688	0		5.979337890625	0.4054625244140625	0		-0.20288014221191406	5.87375	0		
